HIERARCHY
ROOT Hips
{
	OFFSET -0.001795 -0.223333 0.028219
	CHANNELS 6 Xposition Yposition Zposition Zrotation Yrotation Xrotation 
	JOINT LeftUpLeg
	{
		OFFSET 0.069520 -0.091406 -0.006815
		CHANNELS 3 Zrotation Yrotation Xrotation
		JOINT LeftLeg
		{
			OFFSET 0.034277 -0.375199 -0.004496
			CHANNELS 3 Zrotation Yrotation Xrotation
			JOINT LeftFoot
			{
				OFFSET -0.013596 -0.397961 -0.043693
				CHANNELS 3 Zrotation Yrotation Xrotation
				JOINT LeftToe
				{
					OFFSET 0.026358 -0.055791 0.119288
					CHANNELS 3 Zrotation Yrotation Xrotation
					End Site
					{
						OFFSET 0.000000 0.000000 0.000000
					}
				}
			}
		}
	}
	JOINT RightUpLeg
	{
		OFFSET -0.067670 -0.090522 -0.004320
		CHANNELS 3 Zrotation Yrotation Xrotation
		JOINT RightLeg
		{
			OFFSET -0.038290 -0.382569 -0.008850
			CHANNELS 3 Zrotation Yrotation Xrotation
			JOINT RightFoot
			{
				OFFSET 0.015774 -0.398415 -0.042312
				CHANNELS 3 Zrotation Yrotation Xrotation
				JOINT RightToe
				{
					OFFSET -0.025372 -0.048144 0.123348
					CHANNELS 3 Zrotation Yrotation Xrotation
					End Site
					{
						OFFSET 0.000000 0.000000 0.000000
					}
				}
			}
		}
	}
	JOINT Spine
	{
		OFFSET -0.002533 0.108963 -0.026696
		CHANNELS 3 Zrotation Yrotation Xrotation
		JOINT Spine1
		{
			OFFSET 0.005487 0.135180 0.001092
			CHANNELS 3 Zrotation Yrotation Xrotation
			JOINT Spine2
			{
				OFFSET 0.001457 0.052922 0.025425
				CHANNELS 3 Zrotation Yrotation Xrotation
				JOINT Neck
				{
					OFFSET -0.002778 0.213870 -0.042857
					CHANNELS 3 Zrotation Yrotation Xrotation
					JOINT Head
					{
						OFFSET 0.005152 0.064970 0.051349
						CHANNELS 3 Zrotation Yrotation Xrotation
						End Site
						{
							OFFSET 0.000000 0.000000 0.000000
						}
					}
				}
				JOINT LeftShoulder
				{
					OFFSET 0.078845 0.121749 -0.034090
					CHANNELS 3 Zrotation Yrotation Xrotation
					JOINT LeftArm
					{
						OFFSET 0.090977 0.030469 -0.008868
						CHANNELS 3 Zrotation Yrotation Xrotation
						JOINT LeftForeArm
						{
							OFFSET 0.259612 -0.012772 -0.027456
							CHANNELS 3 Zrotation Yrotation Xrotation
							JOINT LeftHand
							{
								OFFSET 0.249234 0.008986 -0.001171
								CHANNELS 3 Zrotation Yrotation Xrotation
								End Site
								{
									OFFSET 0.000000 0.000000 0.000000
								}
							}
						}
					}
				}
				JOINT RightShoulder
				{
					OFFSET -0.081759 0.118833 -0.038615
					CHANNELS 3 Zrotation Yrotation Xrotation
					JOINT RightArm
					{
						OFFSET -0.096012 0.032551 -0.009143
						CHANNELS 3 Zrotation Yrotation Xrotation
						JOINT RightForeArm
						{
							OFFSET -0.253742 -0.013329 -0.021401
							CHANNELS 3 Zrotation Yrotation Xrotation
							JOINT RightHand
							{
								OFFSET -0.255298 0.007772 -0.005559
								CHANNELS 3 Zrotation Yrotation Xrotation
								End Site
								{
									OFFSET 0.000000 0.000000 0.000000
								}
							}
						}
					}
				}
			}
		}
	}
}
MOTION
Frames: 16
Frame Time: 0.050000
0.026302 0.948335 -0.019668 0.678700 -28.223214 4.138282 9.380646 0.642507 -7.830082 -3.127604 0.696626 4.628914 3.313498 6.842390 9.434443 0.000000 0.000000 0.000000 -6.165489 0.924236 -7.673418 2.621190 0.254276 8.076065 -6.179690 -18.547264 12.982078 0.000000 0.000000 0.000000 -4.910993 0.231385 -0.902422 6.729023 -1.481965 -21.706851 -1.468409 -0.774952 27.665352 -0.273225 -0.855636 -32.515374 0.000000 0.000000 0.000000 -23.552586 -2.500510 6.154441 -53.471466 -27.612377 2.854322 0.840680 -42.368134 4.276058 0.000000 0.000000 0.000000 12.492842 17.722565 3.754751 55.159158 20.906152 1.720231 -9.472324 35.010393 -3.017356 0.000000 0.000000 0.000000 
0.026133 0.946426 -0.018585 0.840170 -28.012234 4.632544 9.362154 0.658463 -8.980131 -3.544473 0.836995 5.663524 3.390938 6.994947 8.964559 0.000000 0.000000 0.000000 -6.352079 0.987553 -8.483196 3.124414 0.224460 8.455286 -6.467845 -18.922980 12.678215 0.000000 0.000000 0.000000 -5.341610 0.255469 -0.221791 7.183022 -1.637578 -21.102233 -1.070035 -1.199519 28.162241 -0.722081 -0.573326 -34.116225 0.000000 0.000000 0.000000 -25.592135 -1.546440 6.059849 -55.187806 -23.659317 0.835104 -4.775233 -36.957966 5.303242 0.000000 0.000000 0.000000 13.669495 16.910763 3.155422 60.181620 15.815756 -0.650612 -5.423113 32.568387 -1.516508 0.000000 0.000000 0.000000 
0.026444 0.946143 -0.017495 0.895786 -28.222012 5.233378 9.427673 0.700279 -9.803995 -4.309395 1.046543 6.061391 3.641884 7.418744 8.868221 0.000000 0.000000 0.000000 -6.225576 1.038348 -9.134282 3.246037 0.215353 8.419640 -7.035734 -19.856519 12.908424 0.000000 0.000000 0.000000 -5.091216 0.248625 0.385258 6.768658 -1.532605 -21.186966 -0.779565 -1.710080 28.497416 -0.934606 -0.518187 -35.138201 0.000000 0.000000 0.000000 -26.486116 -1.043337 6.123508 -55.513317 -20.853479 -0.646701 -6.896016 -34.890079 5.544512 0.000000 0.000000 0.000000 14.395713 16.417679 2.625165 62.018468 11.213298 -3.048379 -3.526849 30.765729 -0.925355 0.000000 0.000000 0.000000 
0.026952 0.946310 -0.016680 0.401003 -28.817423 5.946006 9.399067 0.722565 -10.106202 -4.479851 1.086846 5.850610 4.418454 8.713712 9.561024 0.000000 0.000000 0.000000 -5.999935 1.091497 -9.756322 3.752120 0.171522 8.323221 -7.109099 -20.161321 13.492681 0.000000 0.000000 0.000000 -4.391177 0.212769 0.590419 6.763534 -1.562583 -20.929093 -0.638412 -1.389113 28.692953 -1.040240 -0.460248 -35.348320 0.000000 0.000000 0.000000 -26.325995 -0.859750 5.968325 -55.536671 -19.063678 -1.464176 -8.752513 -33.920757 5.865723 0.000000 0.000000 0.000000 14.479956 15.694765 2.255846 62.460695 8.132901 -4.733619 -1.303653 29.704498 -0.301312 0.000000 0.000000 0.000000 
0.027406 0.946722 -0.015671 0.227146 -28.877509 6.406994 9.298327 0.704622 -10.315938 -4.236095 1.004875 5.492549 4.647816 9.083900 9.896892 0.000000 0.000000 0.000000 -5.733036 1.113912 -10.076777 3.809078 0.164374 8.255904 -7.254095 -20.373760 13.421390 0.000000 0.000000 0.000000 -4.044883 0.190851 1.178671 6.970100 -1.638195 -20.619250 -0.748489 -1.635882 28.555903 -1.408675 -0.344546 -34.948237 0.000000 0.000000 0.000000 -26.365521 0.188382 5.319009 -55.173148 -17.911728 -2.028458 -9.278119 -34.328500 6.172681 0.000000 0.000000 0.000000 13.831002 14.885027 1.943325 62.356962 6.436459 -5.710086 1.092230 29.949784 0.256242 0.000000 0.000000 0.000000 
0.027682 0.947117 -0.014520 0.092330 -28.769521 6.684619 9.155910 0.668679 -10.320299 -4.193500 0.968467 5.103595 4.897109 9.458088 11.003307 0.000000 0.000000 0.000000 -5.600007 1.122437 -10.208859 3.882933 0.158344 8.291753 -7.152572 -20.211577 13.318073 0.000000 0.000000 0.000000 -3.858103 0.177904 1.482569 7.412583 -1.808277 -19.935578 -0.944800 -1.782260 28.077010 -1.873035 -0.136041 -34.402135 0.000000 0.000000 0.000000 -25.851536 0.993546 4.634923 -55.362940 -17.100625 -2.235395 -9.172058 -34.512998 6.219615 0.000000 0.000000 0.000000 13.381880 13.911277 1.578782 61.865190 4.917377 -6.443998 2.870709 30.501302 0.666104 0.000000 0.000000 0.000000 
0.027927 0.947636 -0.013037 0.033506 -28.876356 6.590176 9.136550 0.643260 -9.721615 -4.240652 0.941700 4.393783 4.924315 9.507238 11.040786 0.000000 0.000000 0.000000 -5.425103 1.073722 -9.708177 3.693517 0.156633 7.928755 -7.244479 -20.351719 13.485729 0.000000 0.000000 0.000000 -3.732702 0.162401 2.414988 7.494003 -1.844931 -19.820514 -0.727093 -2.022027 27.940161 -2.173174 -0.049846 -33.890573 0.000000 0.000000 0.000000 -25.981907 2.201809 3.878487 -54.481888 -16.468259 -2.587228 -10.289346 -35.030235 6.744790 0.000000 0.000000 0.000000 13.033668 13.101230 1.240244 60.839016 3.315959 -7.135909 4.890271 31.515542 1.143952 0.000000 0.000000 0.000000 
0.028171 0.948214 -0.011524 -0.171588 -28.969999 6.606585 9.263678 0.635317 -8.831466 -4.422254 0.916571 3.058992 5.124147 9.785758 12.186684 0.000000 0.000000 0.000000 -5.173015 1.024583 -9.223920 3.478522 0.156018 7.544017 -6.997885 -20.026959 13.690838 0.000000 0.000000 0.000000 -3.638569 0.153072 3.043273 7.919248 -1.951802 -19.691398 -0.785076 -1.944169 27.636834 -2.711241 0.229348 -33.751189 0.000000 0.000000 0.000000 -25.761068 2.892774 3.318754 -54.501316 -16.032151 -2.698334 -10.236089 -35.491616 6.875435 0.000000 0.000000 0.000000 12.729306 12.406465 1.016254 60.322818 2.090669 -7.685787 6.335762 33.271692 1.548527 0.000000 0.000000 0.000000 
0.028475 0.949409 -0.010003 -0.207253 -29.327171 6.727678 9.269067 0.630778 -8.373899 -4.359471 0.872675 2.247717 5.340627 10.095093 12.538654 0.000000 0.000000 0.000000 -5.144787 1.019426 -9.127724 3.324741 0.167444 7.415002 -6.735669 -19.694507 13.823391 0.000000 0.000000 0.000000 -3.439168 0.138549 3.301155 8.059680 -1.946115 -19.975061 -0.984399 -1.876009 27.591827 -2.904235 0.289245 -33.495128 0.000000 0.000000 0.000000 -25.155061 3.675983 2.731145 -54.714306 -15.412410 -2.850400 -10.591311 -36.345627 7.289071 0.000000 0.000000 0.000000 12.336519 11.699604 0.754129 59.474152 1.648493 -7.795284 7.593153 35.328833 1.908712 0.000000 0.000000 0.000000 
0.028862 0.950517 -0.008560 -0.212763 -29.566786 6.810886 9.288316 0.632696 -8.155232 -4.370421 0.855164 1.678166 5.722400 10.665250 13.224794 0.000000 0.000000 0.000000 -5.130070 1.011092 -9.004996 3.069186 0.175307 7.109811 -6.204627 -19.016741 14.091354 0.000000 0.000000 0.000000 -3.261453 0.125151 3.618895 7.792922 -1.846252 -20.327160 -0.742949 -1.738608 27.518274 -3.067289 0.320528 -32.199709 0.000000 0.000000 0.000000 -24.285382 3.433648 2.763424 -55.405963 -15.424862 -2.643393 -9.887123 -38.045229 7.532890 0.000000 0.000000 0.000000 11.595871 11.382563 0.784682 59.128309 1.797211 -7.762116 8.583602 38.282863 2.283097 0.000000 0.000000 0.000000 
0.029403 0.951669 -0.007066 -0.179193 -29.757983 6.720624 9.197418 0.612410 -7.739385 -4.416675 0.853937 1.319664 5.764581 10.730936 13.189372 0.000000 0.000000 0.000000 -5.195580 0.978437 -8.567899 2.696923 0.181625 6.644927 -5.520685 -18.132991 14.453867 0.000000 0.000000 0.000000 -3.344339 0.132114 3.743405 7.953900 -1.876137 -20.359160 -0.889400 -1.866350 27.527524 -3.222102 0.344167 -31.653736 0.000000 0.000000 0.000000 -23.564137 3.519501 2.648269 -55.727012 -16.026646 -2.211056 -9.881294 -39.080139 7.859682 0.000000 0.000000 0.000000 10.775982 11.416486 0.948316 58.761917 3.101581 -7.179669 9.489947 40.947072 2.626517 0.000000 0.000000 0.000000 
0.030104 0.952694 -0.005586 -0.088522 -30.100708 6.746310 8.972981 0.585517 -7.689041 -4.168937 0.813683 1.458385 5.720149 10.641820 12.900136 0.000000 0.000000 0.000000 -5.176156 0.968847 -8.424582 2.185099 0.202250 6.216359 -4.851842 -17.287336 14.752341 0.000000 0.000000 0.000000 -3.539345 0.151925 3.880870 7.918376 -1.791615 -20.944764 -0.708763 -2.035935 27.740769 -3.115579 0.200952 -30.926981 0.000000 0.000000 0.000000 -23.268531 3.098806 2.990545 -55.690951 -17.013154 -1.711083 -9.214898 -40.628496 8.049829 0.000000 0.000000 0.000000 9.697424 11.519059 1.178774 58.736678 4.708450 -6.606521 10.403957 44.314230 3.021304 0.000000 0.000000 0.000000 
0.031159 0.953964 -0.004270 -0.076477 -30.370017 6.674079 8.619635 0.537104 -7.542721 -3.966540 0.778319 1.498780 5.847976 10.814815 13.034790 0.000000 0.000000 0.000000 -5.225488 0.955174 -8.195656 1.766884 0.205829 5.676099 -4.510780 -17.001512 15.360627 0.000000 0.000000 0.000000 -3.664659 0.162843 3.780795 8.009747 -1.782492 -21.137838 -0.866097 -2.320506 27.707133 -3.151903 0.141085 -30.722561 0.000000 0.000000 0.000000 -22.049085 2.363833 3.370963 -56.392309 -18.121805 -0.895173 -8.776882 -42.968251 8.588050 0.000000 0.000000 0.000000 8.724302 11.952887 1.501601 59.015984 6.607871 -5.905224 11.047322 47.799835 3.331794 0.000000 0.000000 0.000000 
0.032737 0.955082 -0.003549 -0.120645 -30.575576 6.805547 8.339290 0.503819 -7.800264 -3.592665 0.713928 1.770848 5.824898 10.731973 13.081268 0.000000 0.000000 0.000000 -5.416040 0.977967 -8.322233 1.450862 0.206211 5.245143 -4.177087 -16.691686 15.790824 0.000000 0.000000 0.000000 -3.836790 0.178339 3.248374 7.780113 -1.761156 -20.924141 -0.894380 -2.650542 27.447956 -3.409311 0.193947 -30.167012 0.000000 0.000000 0.000000 -20.118596 0.916415 3.977425 -57.535354 -20.326245 0.784531 -6.436727 -45.963141 8.438505 0.000000 0.000000 0.000000 7.852041 12.973947 2.029148 59.143236 8.833343 -4.966102 10.766838 51.909172 3.268538 0.000000 0.000000 0.000000 
0.035046 0.956189 -0.004056 -0.220416 -30.954799 6.804079 8.080481 0.482792 -8.045926 -3.137131 0.634547 2.035866 5.719754 10.497846 13.095072 0.000000 0.000000 0.000000 -5.474128 1.019630 -8.782983 1.430712 0.231754 5.586181 -3.865406 -16.347076 15.919041 0.000000 0.000000 0.000000 -4.151850 0.207655 3.248842 7.801929 -1.760985 -20.946854 -0.680070 -2.564948 27.358766 -3.628036 0.285294 -29.979774 0.000000 0.000000 0.000000 -18.138256 -0.936166 4.656446 -58.083393 -23.755894 3.104845 -2.582142 -50.076727 7.694907 0.000000 0.000000 0.000000 6.720647 14.492401 2.856147 58.680211 12.140540 -3.507744 9.247412 55.361002 2.651397 0.000000 0.000000 0.000000 
0.038237 0.956890 -0.006083 -0.580925 -31.007124 6.836440 8.275262 0.527396 -8.305331 -3.093849 0.664168 3.082054 5.551758 10.270328 12.342909 0.000000 0.000000 0.000000 -5.320564 1.069788 -9.468401 1.317634 0.294776 6.376308 -3.637971 -15.996004 15.669695 0.000000 0.000000 0.000000 -4.266629 0.216852 3.242360 7.897751 -1.836802 -20.526720 -0.531166 -2.234056 27.112902 -3.569098 0.303716 -29.549698 0.000000 0.000000 0.000000 -16.067766 -3.254761 5.387052 -58.148173 -30.093135 7.116296 4.134057 -50.896031 4.474116 0.000000 0.000000 0.000000 5.995496 16.452790 3.781697 57.144717 16.800781 -1.252038 3.146937 58.006324 -0.426501 0.000000 0.000000 0.000000 
